<mxfile host="app.diagrams.net" agent="Mozilla/5.0 (Windows NT 10.0; Win64; x64) AppleWebKit/537.36 (KHTML, like Gecko) Chrome/119.0.0.0 Safari/537.36" version="26.1.1">
  <diagram name="第 1 页" id="Qd8PddshXyBdC90i2YuM">
    <mxGraphModel dx="719" dy="378" grid="1" gridSize="10" guides="1" tooltips="1" connect="1" arrows="1" fold="1" page="1" pageScale="1" pageWidth="827" pageHeight="1169" math="0" shadow="0">
      <root>
        <mxCell id="0" />
        <mxCell id="1" parent="0" />
        <mxCell id="DbNdwRggO_h4KRRio58i-1" value="" style="shape=card;whiteSpace=wrap;html=1;size=20;fillColor=#dae8fc;strokeColor=#6c8ebf;" vertex="1" parent="1">
          <mxGeometry x="50" y="30" width="50" height="60" as="geometry" />
        </mxCell>
        <mxCell id="DbNdwRggO_h4KRRio58i-5" style="edgeStyle=orthogonalEdgeStyle;rounded=0;orthogonalLoop=1;jettySize=auto;html=1;entryX=0;entryY=0.5;entryDx=0;entryDy=0;" edge="1" parent="1" source="DbNdwRggO_h4KRRio58i-3" target="DbNdwRggO_h4KRRio58i-4">
          <mxGeometry relative="1" as="geometry" />
        </mxCell>
        <mxCell id="DbNdwRggO_h4KRRio58i-3" value="" style="shape=card;whiteSpace=wrap;html=1;size=20;fillColor=#dae8fc;strokeColor=#6c8ebf;" vertex="1" parent="1">
          <mxGeometry x="138" y="210" width="50" height="60" as="geometry" />
        </mxCell>
        <mxCell id="DbNdwRggO_h4KRRio58i-53" style="edgeStyle=orthogonalEdgeStyle;rounded=0;orthogonalLoop=1;jettySize=auto;html=1;entryX=0;entryY=0.5;entryDx=0;entryDy=0;" edge="1" parent="1" source="DbNdwRggO_h4KRRio58i-4" target="DbNdwRggO_h4KRRio58i-24">
          <mxGeometry relative="1" as="geometry" />
        </mxCell>
        <mxCell id="DbNdwRggO_h4KRRio58i-4" value="&lt;b&gt;&lt;font face=&quot;Times New Roman&quot;&gt;Sentence-BERT&lt;/font&gt;&lt;/b&gt;" style="rounded=1;whiteSpace=wrap;html=1;" vertex="1" parent="1">
          <mxGeometry x="220" y="220" width="90" height="40" as="geometry" />
        </mxCell>
        <mxCell id="DbNdwRggO_h4KRRio58i-6" style="edgeStyle=orthogonalEdgeStyle;rounded=0;orthogonalLoop=1;jettySize=auto;html=1;entryX=0;entryY=0.5;entryDx=0;entryDy=0;" edge="1" parent="1" source="DbNdwRggO_h4KRRio58i-7" target="DbNdwRggO_h4KRRio58i-8">
          <mxGeometry relative="1" as="geometry" />
        </mxCell>
        <mxCell id="DbNdwRggO_h4KRRio58i-7" value="" style="shape=card;whiteSpace=wrap;html=1;size=20;fillColor=#d5e8d4;strokeColor=#82b366;" vertex="1" parent="1">
          <mxGeometry x="138" y="370" width="50" height="60" as="geometry" />
        </mxCell>
        <mxCell id="DbNdwRggO_h4KRRio58i-8" value="&lt;b&gt;&lt;font face=&quot;Times New Roman&quot;&gt;Sentence-BERT&lt;/font&gt;&lt;/b&gt;" style="rounded=1;whiteSpace=wrap;html=1;" vertex="1" parent="1">
          <mxGeometry x="220" y="380" width="90" height="40" as="geometry" />
        </mxCell>
        <mxCell id="DbNdwRggO_h4KRRio58i-9" value="" style="ellipse;whiteSpace=wrap;html=1;aspect=fixed;" vertex="1" parent="1">
          <mxGeometry x="670" y="470" width="20" height="20" as="geometry" />
        </mxCell>
        <mxCell id="DbNdwRggO_h4KRRio58i-23" value="" style="group" vertex="1" connectable="0" parent="1">
          <mxGeometry x="401" y="215" width="40" height="50" as="geometry" />
        </mxCell>
        <mxCell id="DbNdwRggO_h4KRRio58i-18" value="" style="endArrow=none;html=1;rounded=0;exitX=1;exitY=0.25;exitDx=0;exitDy=0;entryX=0;entryY=0.5;entryDx=0;entryDy=0;" edge="1" parent="DbNdwRggO_h4KRRio58i-23" source="DbNdwRggO_h4KRRio58i-15" target="DbNdwRggO_h4KRRio58i-17">
          <mxGeometry width="50" height="50" relative="1" as="geometry">
            <mxPoint x="20" y="120" as="sourcePoint" />
            <mxPoint x="70" y="70" as="targetPoint" />
          </mxGeometry>
        </mxCell>
        <mxCell id="DbNdwRggO_h4KRRio58i-19" value="" style="endArrow=none;html=1;rounded=0;entryX=0;entryY=0.5;entryDx=0;entryDy=0;exitX=1;exitY=0.75;exitDx=0;exitDy=0;" edge="1" parent="DbNdwRggO_h4KRRio58i-23" source="DbNdwRggO_h4KRRio58i-12" target="DbNdwRggO_h4KRRio58i-16">
          <mxGeometry width="50" height="50" relative="1" as="geometry">
            <mxPoint x="-20" y="130" as="sourcePoint" />
            <mxPoint x="30" y="80" as="targetPoint" />
          </mxGeometry>
        </mxCell>
        <mxCell id="DbNdwRggO_h4KRRio58i-21" value="" style="endArrow=none;html=1;rounded=0;exitX=1;exitY=0.5;exitDx=0;exitDy=0;entryX=0;entryY=0.5;entryDx=0;entryDy=0;" edge="1" parent="DbNdwRggO_h4KRRio58i-23" source="DbNdwRggO_h4KRRio58i-14" target="DbNdwRggO_h4KRRio58i-17">
          <mxGeometry width="50" height="50" relative="1" as="geometry">
            <mxPoint x="20" y="53" as="sourcePoint" />
            <mxPoint x="40" y="45" as="targetPoint" />
          </mxGeometry>
        </mxCell>
        <mxCell id="DbNdwRggO_h4KRRio58i-22" value="" style="endArrow=none;html=1;rounded=0;exitX=1;exitY=0.5;exitDx=0;exitDy=0;entryX=0;entryY=0.5;entryDx=0;entryDy=0;" edge="1" parent="DbNdwRggO_h4KRRio58i-23" source="DbNdwRggO_h4KRRio58i-14" target="DbNdwRggO_h4KRRio58i-16">
          <mxGeometry width="50" height="50" relative="1" as="geometry">
            <mxPoint x="20" y="35" as="sourcePoint" />
            <mxPoint x="40" y="45" as="targetPoint" />
          </mxGeometry>
        </mxCell>
        <mxCell id="DbNdwRggO_h4KRRio58i-12" value="" style="whiteSpace=wrap;html=1;aspect=fixed;fillColor=#dae8fc;strokeColor=#6c8ebf;" vertex="1" parent="DbNdwRggO_h4KRRio58i-23">
          <mxGeometry width="10" height="10" as="geometry" />
        </mxCell>
        <mxCell id="DbNdwRggO_h4KRRio58i-14" value="" style="whiteSpace=wrap;html=1;aspect=fixed;fillColor=#dae8fc;strokeColor=#6c8ebf;" vertex="1" parent="DbNdwRggO_h4KRRio58i-23">
          <mxGeometry y="20" width="10" height="10" as="geometry" />
        </mxCell>
        <mxCell id="DbNdwRggO_h4KRRio58i-15" value="" style="whiteSpace=wrap;html=1;aspect=fixed;fillColor=#dae8fc;strokeColor=#6c8ebf;" vertex="1" parent="DbNdwRggO_h4KRRio58i-23">
          <mxGeometry y="40" width="10" height="10" as="geometry" />
        </mxCell>
        <mxCell id="DbNdwRggO_h4KRRio58i-16" value="" style="whiteSpace=wrap;html=1;aspect=fixed;fillColor=#dae8fc;strokeColor=#6c8ebf;" vertex="1" parent="DbNdwRggO_h4KRRio58i-23">
          <mxGeometry x="30" y="10" width="10" height="10" as="geometry" />
        </mxCell>
        <mxCell id="DbNdwRggO_h4KRRio58i-17" value="" style="whiteSpace=wrap;html=1;aspect=fixed;fillColor=#dae8fc;strokeColor=#6c8ebf;" vertex="1" parent="DbNdwRggO_h4KRRio58i-23">
          <mxGeometry x="30" y="30" width="10" height="10" as="geometry" />
        </mxCell>
        <mxCell id="DbNdwRggO_h4KRRio58i-30" value="" style="group" vertex="1" connectable="0" parent="1">
          <mxGeometry x="340" y="235" width="30" height="10" as="geometry" />
        </mxCell>
        <mxCell id="DbNdwRggO_h4KRRio58i-24" value="" style="whiteSpace=wrap;html=1;aspect=fixed;fillColor=#CCCCFF;strokeColor=#6c8ebf;" vertex="1" parent="DbNdwRggO_h4KRRio58i-30">
          <mxGeometry width="10" height="10" as="geometry" />
        </mxCell>
        <mxCell id="DbNdwRggO_h4KRRio58i-25" value="" style="whiteSpace=wrap;html=1;aspect=fixed;fillColor=#6666FF;strokeColor=#6c8ebf;" vertex="1" parent="DbNdwRggO_h4KRRio58i-30">
          <mxGeometry x="10" width="10" height="10" as="geometry" />
        </mxCell>
        <mxCell id="DbNdwRggO_h4KRRio58i-29" value="" style="whiteSpace=wrap;html=1;aspect=fixed;fillColor=#9999FF;strokeColor=#6c8ebf;" vertex="1" parent="DbNdwRggO_h4KRRio58i-30">
          <mxGeometry x="20" width="10" height="10" as="geometry" />
        </mxCell>
        <mxCell id="DbNdwRggO_h4KRRio58i-50" value="" style="group" vertex="1" connectable="0" parent="1">
          <mxGeometry x="401" y="375" width="30" height="50" as="geometry" />
        </mxCell>
        <mxCell id="DbNdwRggO_h4KRRio58i-46" value="" style="endArrow=none;html=1;rounded=0;entryX=0;entryY=0.5;entryDx=0;entryDy=0;exitX=1;exitY=0.5;exitDx=0;exitDy=0;" edge="1" parent="DbNdwRggO_h4KRRio58i-50" source="DbNdwRggO_h4KRRio58i-31" target="DbNdwRggO_h4KRRio58i-45">
          <mxGeometry width="50" height="50" relative="1" as="geometry">
            <mxPoint x="24" y="-72" as="sourcePoint" />
            <mxPoint x="44" y="-65" as="targetPoint" />
          </mxGeometry>
        </mxCell>
        <mxCell id="DbNdwRggO_h4KRRio58i-47" value="" style="endArrow=none;html=1;rounded=0;entryX=0;entryY=0.5;entryDx=0;entryDy=0;exitX=1;exitY=0.5;exitDx=0;exitDy=0;" edge="1" parent="DbNdwRggO_h4KRRio58i-50" source="DbNdwRggO_h4KRRio58i-37" target="DbNdwRggO_h4KRRio58i-45">
          <mxGeometry width="50" height="50" relative="1" as="geometry">
            <mxPoint x="34" y="-62" as="sourcePoint" />
            <mxPoint x="54" y="-55" as="targetPoint" />
          </mxGeometry>
        </mxCell>
        <mxCell id="DbNdwRggO_h4KRRio58i-48" value="" style="endArrow=none;html=1;rounded=0;entryX=0;entryY=0.5;entryDx=0;entryDy=0;exitX=1;exitY=0.5;exitDx=0;exitDy=0;" edge="1" parent="DbNdwRggO_h4KRRio58i-50" source="DbNdwRggO_h4KRRio58i-41" target="DbNdwRggO_h4KRRio58i-44">
          <mxGeometry width="50" height="50" relative="1" as="geometry">
            <mxPoint x="20" y="15" as="sourcePoint" />
            <mxPoint x="30" y="25" as="targetPoint" />
          </mxGeometry>
        </mxCell>
        <mxCell id="DbNdwRggO_h4KRRio58i-49" value="" style="endArrow=none;html=1;rounded=0;exitX=1;exitY=0.5;exitDx=0;exitDy=0;" edge="1" parent="DbNdwRggO_h4KRRio58i-50" source="DbNdwRggO_h4KRRio58i-37">
          <mxGeometry width="50" height="50" relative="1" as="geometry">
            <mxPoint x="30" y="25" as="sourcePoint" />
            <mxPoint x="20" y="35" as="targetPoint" />
          </mxGeometry>
        </mxCell>
        <mxCell id="DbNdwRggO_h4KRRio58i-31" value="" style="ellipse;whiteSpace=wrap;html=1;aspect=fixed;fillColor=#d5e8d4;strokeColor=#82b366;" vertex="1" parent="DbNdwRggO_h4KRRio58i-50">
          <mxGeometry width="10" height="10" as="geometry" />
        </mxCell>
        <mxCell id="DbNdwRggO_h4KRRio58i-37" value="" style="ellipse;whiteSpace=wrap;html=1;aspect=fixed;fillColor=#d5e8d4;strokeColor=#82b366;" vertex="1" parent="DbNdwRggO_h4KRRio58i-50">
          <mxGeometry y="20" width="10" height="10" as="geometry" />
        </mxCell>
        <mxCell id="DbNdwRggO_h4KRRio58i-41" value="" style="ellipse;whiteSpace=wrap;html=1;aspect=fixed;fillColor=#d5e8d4;strokeColor=#82b366;" vertex="1" parent="DbNdwRggO_h4KRRio58i-50">
          <mxGeometry y="40" width="10" height="10" as="geometry" />
        </mxCell>
        <mxCell id="DbNdwRggO_h4KRRio58i-44" value="" style="ellipse;whiteSpace=wrap;html=1;aspect=fixed;fillColor=#d5e8d4;strokeColor=#82b366;" vertex="1" parent="DbNdwRggO_h4KRRio58i-50">
          <mxGeometry x="20" y="30" width="10" height="10" as="geometry" />
        </mxCell>
        <mxCell id="DbNdwRggO_h4KRRio58i-45" value="" style="ellipse;whiteSpace=wrap;html=1;aspect=fixed;fillColor=#d5e8d4;strokeColor=#82b366;" vertex="1" parent="DbNdwRggO_h4KRRio58i-50">
          <mxGeometry x="20" y="10" width="10" height="10" as="geometry" />
        </mxCell>
        <mxCell id="DbNdwRggO_h4KRRio58i-54" style="edgeStyle=orthogonalEdgeStyle;rounded=0;orthogonalLoop=1;jettySize=auto;html=1;" edge="1" parent="1" source="DbNdwRggO_h4KRRio58i-29">
          <mxGeometry relative="1" as="geometry">
            <mxPoint x="400" y="240" as="targetPoint" />
          </mxGeometry>
        </mxCell>
        <mxCell id="DbNdwRggO_h4KRRio58i-55" style="edgeStyle=orthogonalEdgeStyle;rounded=0;orthogonalLoop=1;jettySize=auto;html=1;entryX=0;entryY=0.5;entryDx=0;entryDy=0;" edge="1" parent="1" target="DbNdwRggO_h4KRRio58i-57">
          <mxGeometry relative="1" as="geometry">
            <mxPoint x="310" y="400" as="sourcePoint" />
          </mxGeometry>
        </mxCell>
        <mxCell id="DbNdwRggO_h4KRRio58i-60" style="edgeStyle=orthogonalEdgeStyle;rounded=0;orthogonalLoop=1;jettySize=auto;html=1;entryX=0;entryY=0.5;entryDx=0;entryDy=0;exitX=1;exitY=0.5;exitDx=0;exitDy=0;" edge="1" parent="1" source="DbNdwRggO_h4KRRio58i-59">
          <mxGeometry relative="1" as="geometry">
            <mxPoint x="370" y="399.71" as="sourcePoint" />
            <mxPoint x="400" y="399.71" as="targetPoint" />
          </mxGeometry>
        </mxCell>
        <mxCell id="DbNdwRggO_h4KRRio58i-57" value="" style="whiteSpace=wrap;html=1;aspect=fixed;fillColor=#d5e8d4;strokeColor=#82b366;container=0;" vertex="1" parent="1">
          <mxGeometry x="340" y="395" width="10" height="10" as="geometry" />
        </mxCell>
        <mxCell id="DbNdwRggO_h4KRRio58i-58" value="" style="whiteSpace=wrap;html=1;aspect=fixed;fillColor=#CCFF99;strokeColor=#82b366;container=0;" vertex="1" parent="1">
          <mxGeometry x="350" y="395" width="10" height="10" as="geometry" />
        </mxCell>
        <mxCell id="DbNdwRggO_h4KRRio58i-59" value="" style="whiteSpace=wrap;html=1;aspect=fixed;fillColor=#CCFFCC;strokeColor=#82b366;container=0;" vertex="1" parent="1">
          <mxGeometry x="360" y="395" width="10" height="10" as="geometry" />
        </mxCell>
        <mxCell id="DbNdwRggO_h4KRRio58i-61" value="&lt;h6&gt;&lt;font style=&quot;font-size: 8px;&quot; face=&quot;Times New Roman&quot;&gt;&lt;b style=&quot;line-height: 10%;&quot;&gt;Mashup &amp;amp; Web API Repository&lt;/b&gt;&lt;/font&gt;&lt;/h6&gt;" style="shape=cylinder3;whiteSpace=wrap;html=1;boundedLbl=1;backgroundOutline=1;size=15;fillColor=#f5f5f5;fontColor=#333333;strokeColor=#666666;" vertex="1" parent="1">
          <mxGeometry x="128" y="290" width="70" height="60" as="geometry" />
        </mxCell>
        <mxCell id="DbNdwRggO_h4KRRio58i-62" style="edgeStyle=orthogonalEdgeStyle;rounded=0;orthogonalLoop=1;jettySize=auto;html=1;exitX=0.5;exitY=0;exitDx=0;exitDy=0;exitPerimeter=0;dashed=1;" edge="1" parent="1" source="DbNdwRggO_h4KRRio58i-61">
          <mxGeometry relative="1" as="geometry">
            <mxPoint x="198" y="250" as="sourcePoint" />
            <mxPoint x="163" y="271" as="targetPoint" />
          </mxGeometry>
        </mxCell>
        <mxCell id="DbNdwRggO_h4KRRio58i-63" style="edgeStyle=orthogonalEdgeStyle;rounded=0;orthogonalLoop=1;jettySize=auto;html=1;exitX=0.5;exitY=1;exitDx=0;exitDy=0;exitPerimeter=0;dashed=1;" edge="1" parent="1" source="DbNdwRggO_h4KRRio58i-61">
          <mxGeometry relative="1" as="geometry">
            <mxPoint x="173" y="300" as="sourcePoint" />
            <mxPoint x="163" y="370" as="targetPoint" />
          </mxGeometry>
        </mxCell>
        <mxCell id="DbNdwRggO_h4KRRio58i-66" value="&lt;p&gt;&lt;span style=&quot;font-size: 14px;&quot;&gt;&lt;font face=&quot;Times New Roman&quot;&gt;$$v_a$$&lt;/font&gt;&lt;/span&gt;&lt;/p&gt;" style="rounded=0;whiteSpace=wrap;html=1;fillColor=none;strokeColor=none;" vertex="1" parent="1">
          <mxGeometry x="520" y="280" width="90" height="60" as="geometry" />
        </mxCell>
      </root>
    </mxGraphModel>
  </diagram>
</mxfile>
